<svg xmlns="http://www.w3.org/2000/svg" viewBox="0 0 180 180">
  <defs>
    <linearGradient id="bg" x1="0%" y1="0%" x2="100%" y2="100%">
      <stop offset="0%" style="stop-color:#1a1a1a"/>
      <stop offset="100%" style="stop-color:#0a0a0a"/>
    </linearGradient>
    <linearGradient id="flame" x1="0%" y1="100%" x2="0%" y2="0%">
      <stop offset="0%" style="stop-color:#f97316"/>
      <stop offset="100%" style="stop-color:#dc2626"/>
    </linearGradient>
  </defs>
  <rect width="180" height="180" rx="40" fill="url(#bg)"/>
  <g transform="translate(45, 30) scale(2.8)">
    <path fill="url(#flame)" d="M16 2c0 0-3 4-3 8c0 2.5 1.5 4.5 3 6c-1-2 0-4 2-5c0 3 2 5 2 8c0 4-3 7-6 8c5-1 10-5 10-11c0-6-4-10-8-14z"/>
    <path fill="url(#flame)" opacity="0.8" d="M14 12c0 0-2 3-2 6c0 2 1 4 4 6c-2-2-1-4 1-5c0 2 1 4 1 6c0 2-1 3-2 4c3-1 5-3 5-7c0-4-3-6-5-8c-1-1-2-2-2-2z"/>
  </g>
</svg>
